<?xml version="1.0" encoding="UTF-8"?>
<svg xmlns="http://www.w3.org/2000/svg" viewBox="0 0 64 64">
  <circle cx="32" cy="32" r="28" fill="none" stroke="currentColor" stroke-width="3"/>
  <circle cx="32" cy="32" r="14" fill="none" stroke="currentColor" stroke-width="3"/>
  <circle cx="32" cy="32" r="6" fill="currentColor"/>
  <path d="M10 32C10 19.85 19.85 10 32 10C44.15 10 54 19.85 54 32" fill="none" stroke="currentColor" stroke-width="3"/>
  <path d="M54 32C54 44.15 44.15 54 32 54C19.85 54 10 44.15 10 32" fill="none" stroke="currentColor" stroke-width="2" stroke-dasharray="3,3"/>
  <line x1="32" y1="4" x2="32" y2="10" stroke="currentColor" stroke-width="2"/>
  <line x1="32" y1="54" x2="32" y2="60" stroke="currentColor" stroke-width="2"/>
  <line x1="4" y1="32" x2="10" y2="32" stroke="currentColor" stroke-width="2"/>
  <line x1="54" y1="32" x2="60" y2="32" stroke="currentColor" stroke-width="2"/>
  <line x1="12" y1="12" x2="16" y2="16" stroke="currentColor" stroke-width="2"/>
  <line x1="48" y1="48" x2="52" y2="52" stroke="currentColor" stroke-width="2"/>
  <line x1="12" y1="52" x2="16" y2="48" stroke="currentColor" stroke-width="2"/>
  <line x1="48" y1="16" x2="52" y2="12" stroke="currentColor" stroke-width="2"/>
</svg>
